<svg xmlns="http://www.w3.org/2000/svg" width="270" height="270" fill="none"><path fill="url(#B)" d="M0 0h270v270H0z"/><defs><filter id="A" color-interpolation-filters="sRGB" filterUnits="userSpaceOnUse" height="270" width="270"><feDropShadow dx="0" dy="1" stdDeviation="2" flood-opacity=".225" width="200%" height="200%"/></filter></defs><path fill="none" stroke="#1DD4FF" stroke-width="6" stroke-miterlimit="10" d="M28.925,63.961 c0-19.375,15.708-35.083,35.082-35.083"/><path fill="none" stroke="#59FF22" stroke-width="6" stroke-miterlimit="10" d="M22.965,63.958 c0-22.662,18.373-41.036,41.035-41.036"/><path fill="none" stroke="#FFED12" stroke-width="6" stroke-miterlimit="10" d="M17.381,63.958c0-25.746,20.874-46.62,46.619-46.62"/><path fill="none" stroke="#FF9F2C" stroke-width="6" stroke-miterlimit="10" d="M11.548,63.958c0-28.969,23.484-52.453,52.452-52.453"/><path fill="none" stroke="#FF2929" stroke-width="7" stroke-miterlimit="10" d="M5.298,63.958C5.298,31.537,31.58,5.255,64,5.255" /><path fill="none" stroke="#E31FFF" stroke-width="6" stroke-miterlimit="10" d="M40.134,64c0-13.244,10.737-23.982,23.981-23.982" /><path fill="none" stroke="#3131FF" stroke-width="6" stroke-miterlimit="10" d="M34.322,64c0-16.455,13.339-29.794,29.793-29.794" /><defs><linearGradient id="B" x1="0" y1="0" x2="270" y2="270" gradientUnits="userSpaceOnUse"><stop stop-color="#c5eee"/><stop offset="1" stop-color="#0cd7f4" stop-opacity=".99"/></linearGradient></defs><text x="32.5" y="231" font-size="27" fill="#fff" filter="url(#A)" font-family="Plus Jakarta Sans,DejaVu Sans,Noto Color Emoji,Apple Color Emoji,sans-serif" font-weight="bold">chubbycat.bit</text></svg>